<svg width="33" height="32" viewBox="0 0 33 32" fill="none" xmlns="http://www.w3.org/2000/svg">
<mask id="path-1-outside-1_216_10" maskUnits="userSpaceOnUse" x="0" y="0" width="33" height="32" fill="black">
<rect fill="white" width="33" height="32"/>
<path d="M8 13.4668V13.3008C8 10.9766 9.66016 8.98438 11.9512 8.61914C13.4453 8.35352 15.0059 8.85156 16.1016 9.94727L16.5 10.3125L16.8652 9.94727C17.9609 8.85156 19.5215 8.35352 21.0156 8.61914C23.3066 8.98438 25 10.9766 25 13.3008V13.4668C25 14.8613 24.4023 16.1895 23.4062 17.1191L17.3965 22.7305C17.1641 22.9629 16.832 23.0625 16.5 23.0625C16.1348 23.0625 15.8027 22.9629 15.5703 22.7305L9.56055 17.1191C8.56445 16.1895 8 14.8613 8 13.4668Z"/>
</mask>
<path d="M8 13.4668V13.3008C8 10.9766 9.66016 8.98438 11.9512 8.61914C13.4453 8.35352 15.0059 8.85156 16.1016 9.94727L16.5 10.3125L16.8652 9.94727C17.9609 8.85156 19.5215 8.35352 21.0156 8.61914C23.3066 8.98438 25 10.9766 25 13.3008V13.4668C25 14.8613 24.4023 16.1895 23.4062 17.1191L17.3965 22.7305C17.1641 22.9629 16.832 23.0625 16.5 23.0625C16.1348 23.0625 15.8027 22.9629 15.5703 22.7305L9.56055 17.1191C8.56445 16.1895 8 14.8613 8 13.4668Z" fill="white"/>
<path d="M11.9512 8.61914L13.2106 16.5194L13.2811 16.5081L13.3514 16.4956L11.9512 8.61914ZM16.1016 9.94727L10.4447 15.6041L10.5676 15.727L10.6958 15.8445L16.1016 9.94727ZM16.5 10.3125L11.0942 16.2097L16.7406 21.3856L22.1569 15.9694L16.5 10.3125ZM21.0156 8.61914L19.6154 16.4956L19.6857 16.5081L19.7562 16.5194L21.0156 8.61914ZM23.4062 17.1191L17.9477 11.2707L17.9466 11.2718L23.4062 17.1191ZM17.3965 22.7305L11.9368 16.8831L11.8366 16.9767L11.7396 17.0736L17.3965 22.7305ZM15.5703 22.7305L21.2272 17.0736L21.1302 16.9767L21.03 16.8831L15.5703 22.7305ZM9.56055 17.1191L15.0202 11.2718L15.0191 11.2707L9.56055 17.1191ZM16 13.4668V13.3008H0V13.4668H16ZM16 13.3008C16 14.8069 14.9023 16.2497 13.2106 16.5194L10.6917 0.718902C4.41801 1.71906 0 7.14624 0 13.3008H16ZM13.3514 16.4956C12.2157 16.6976 11.1567 16.3162 10.4447 15.6041L21.7584 4.29041C18.855 1.38696 14.6749 0.00947956 10.5509 0.742641L13.3514 16.4956ZM10.6958 15.8445L11.0942 16.2097L21.9058 4.41527L21.5074 4.05003L10.6958 15.8445ZM22.1569 15.9694L22.5221 15.6041L11.2084 4.29041L10.8431 4.65565L22.1569 15.9694ZM22.5221 15.6041C21.81 16.3162 20.7511 16.6976 19.6154 16.4956L22.4159 0.742641C18.2919 0.00947956 14.1118 1.38696 11.2084 4.29041L22.5221 15.6041ZM19.7562 16.5194C18.1444 16.2624 17 14.8886 17 13.3008H33C33 7.06449 28.4689 1.70632 22.2751 0.718902L19.7562 16.5194ZM17 13.3008V13.4668H33V13.3008H17ZM17 13.4668C17 12.591 17.3618 11.8175 17.9477 11.2707L28.8648 22.9676C31.4429 20.5614 33 17.1317 33 13.4668H17ZM17.9466 11.2718L11.9368 16.8831L22.8562 28.5778L28.8659 22.9665L17.9466 11.2718ZM11.7396 17.0736C13.4252 15.388 15.3848 15.0625 16.5 15.0625V31.0625C18.2793 31.0625 20.9029 30.5378 23.0533 28.3873L11.7396 17.0736ZM16.5 15.0625C17.4733 15.0625 19.4839 15.3303 21.2272 17.0736L9.91346 28.3873C12.1216 30.5954 14.7962 31.0625 16.5 31.0625V15.0625ZM21.03 16.8831L15.0202 11.2718L4.10085 22.9665L10.1106 28.5778L21.03 16.8831ZM15.0191 11.2707C15.7002 11.9064 16 12.7218 16 13.4668H0C0 17.0008 1.4287 20.4725 4.102 22.9676L15.0191 11.2707Z" fill="url(#paint0_linear_216_10)" fill-opacity="0.45" mask="url(#path-1-outside-1_216_10)"/>
<defs>
<linearGradient id="paint0_linear_216_10" x1="16.5" y1="7" x2="16.5" y2="24" gradientUnits="userSpaceOnUse">
<stop stop-color="white" stop-opacity="0.39"/>
<stop offset="1" stop-color="white" stop-opacity="0.51"/>
</linearGradient>
</defs>
</svg>
