<svg width="33" height="31" viewBox="0 0 33 31" fill="none" xmlns="http://www.w3.org/2000/svg">
<mask id="path-1-outside-1_216_10" maskUnits="userSpaceOnUse" x="0" y="0" width="33" height="33" fill="black">
<rect fill="white" width="33" height="33"/>
<path d="M16.1016 9.91406L16.4668 10.3125L16.8652 9.94727C17.9609 8.85156 19.5215 8.35352 21.0156 8.61914C23.3066 8.98438 25 10.9766 25 13.3008V13.4668C25 14.8613 24.4023 16.1895 23.4062 17.1191L17.3965 22.7305C17.1641 22.9629 16.832 23.0625 16.5 23.0625C16.1348 23.0625 15.8027 22.9629 15.5703 22.7305L9.56055 17.1191C8.56445 16.1895 8 14.8613 8 13.4668V13.3008C8 10.9766 9.66016 8.98438 11.9512 8.61914C13.4453 8.35352 15.0059 8.85156 16.1016 9.91406C16.1016 9.94727 16.0684 9.91406 16.1016 9.91406ZM16.4668 12.5703L14.9727 11.043C14.2422 10.3457 13.2129 10.0137 12.2168 10.1797C10.6895 10.4453 9.59375 11.7402 9.59375 13.3008V13.4668C9.59375 14.4297 9.95898 15.3262 10.6562 15.957L16.5 21.4023L22.3105 15.957C23.0078 15.3262 23.4062 14.4297 23.4062 13.4668V13.3008C23.4062 11.7402 22.2773 10.4453 20.75 10.1797C19.7539 10.0137 18.7246 10.3457 17.9941 11.043L16.4668 12.5703Z"/>
</mask>
<path d="M16.1016 9.91406L16.4668 10.3125L16.8652 9.94727C17.9609 8.85156 19.5215 8.35352 21.0156 8.61914C23.3066 8.98438 25 10.9766 25 13.3008V13.4668C25 14.8613 24.4023 16.1895 23.4062 17.1191L17.3965 22.7305C17.1641 22.9629 16.832 23.0625 16.5 23.0625C16.1348 23.0625 15.8027 22.9629 15.5703 22.7305L9.56055 17.1191C8.56445 16.1895 8 14.8613 8 13.4668V13.3008C8 10.9766 9.66016 8.98438 11.9512 8.61914C13.4453 8.35352 15.0059 8.85156 16.1016 9.91406C16.1016 9.94727 16.0684 9.91406 16.1016 9.91406ZM16.4668 12.5703L14.9727 11.043C14.2422 10.3457 13.2129 10.0137 12.2168 10.1797C10.6895 10.4453 9.59375 11.7402 9.59375 13.3008V13.4668C9.59375 14.4297 9.95898 15.3262 10.6562 15.957L16.5 21.4023L22.3105 15.957C23.0078 15.3262 23.4062 14.4297 23.4062 13.4668V13.3008C23.4062 11.7402 22.2773 10.4453 20.75 10.1797C19.7539 10.0137 18.7246 10.3457 17.9941 11.043L16.4668 12.5703Z" fill="white"/>
<path d="M16.1016 9.91406L21.9988 4.50827L21.8397 4.33474L21.6707 4.17086L16.1016 9.91406ZM16.4668 10.3125L10.5696 15.7183L15.9754 21.6155L21.8726 16.2097L16.4668 10.3125ZM16.8652 9.94727L22.271 15.8445L22.3992 15.727L22.5221 15.6041L16.8652 9.94727ZM21.0156 8.61914L19.6154 16.4956L19.6857 16.5081L19.7562 16.5194L21.0156 8.61914ZM23.4062 17.1191L17.9477 11.2707L17.9466 11.2718L23.4062 17.1191ZM17.3965 22.7305L11.9368 16.8831L11.8366 16.9767L11.7396 17.0736L17.3965 22.7305ZM15.5703 22.7305L21.2272 17.0736L21.1302 16.9767L21.03 16.8831L15.5703 22.7305ZM9.56055 17.1191L15.0202 11.2718L15.0191 11.2707L9.56055 17.1191ZM11.9512 8.61914L13.2106 16.5194L13.2811 16.5081L13.3514 16.4956L11.9512 8.61914ZM16.4668 12.5703L10.7481 18.1647L16.4043 23.9465L22.1237 18.2272L16.4668 12.5703ZM14.9727 11.043L20.6913 5.44862L20.5955 5.3507L20.4965 5.25612L14.9727 11.043ZM12.2168 10.1797L10.9016 2.28854L10.8738 2.29317L10.8461 2.29799L12.2168 10.1797ZM10.6562 15.957L16.1101 10.1042L16.0671 10.0641L16.0236 10.0247L10.6562 15.957ZM16.5 21.4023L11.0462 27.2552L16.5156 32.3517L21.9704 27.2397L16.5 21.4023ZM22.3105 15.957L16.9432 10.0247L16.8913 10.0718L16.8401 10.1197L22.3105 15.957ZM20.75 10.1797L22.1207 2.29799L22.093 2.29317L22.0652 2.28854L20.75 10.1797ZM17.9941 11.043L12.4703 5.25612L12.4031 5.32035L12.3373 5.38611L17.9941 11.043ZM10.2043 15.3199L10.5696 15.7183L22.364 4.9067L21.9988 4.50827L10.2043 15.3199ZM21.8726 16.2097L22.271 15.8445L11.4594 4.05003L11.061 4.41527L21.8726 16.2097ZM22.5221 15.6041C21.81 16.3162 20.7511 16.6976 19.6154 16.4956L22.4159 0.742641C18.2919 0.00947956 14.1118 1.38696 11.2084 4.29041L22.5221 15.6041ZM19.7562 16.5194C18.1444 16.2624 17 14.8886 17 13.3008H33C33 7.06449 28.4689 1.70632 22.2751 0.718902L19.7562 16.5194ZM17 13.3008V13.4668H33V13.3008H17ZM17 13.4668C17 12.591 17.3618 11.8175 17.9477 11.2707L28.8648 22.9676C31.4429 20.5614 33 17.1317 33 13.4668H17ZM17.9466 11.2718L11.9368 16.8831L22.8562 28.5778L28.8659 22.9665L17.9466 11.2718ZM11.7396 17.0736C13.4252 15.388 15.3848 15.0625 16.5 15.0625V31.0625C18.2793 31.0625 20.9029 30.5378 23.0533 28.3873L11.7396 17.0736ZM16.5 15.0625C17.4733 15.0625 19.4839 15.3303 21.2272 17.0736L9.91346 28.3873C12.1216 30.5954 14.7962 31.0625 16.5 31.0625V15.0625ZM21.03 16.8831L15.0202 11.2718L4.10085 22.9665L10.1106 28.5778L21.03 16.8831ZM15.0191 11.2707C15.7002 11.9064 16 12.7218 16 13.4668H0C0 17.0008 1.4287 20.4725 4.102 22.9676L15.0191 11.2707ZM16 13.4668V13.3008H0V13.4668H16ZM16 13.3008C16 14.8069 14.9023 16.2497 13.2106 16.5194L10.6917 0.718902C4.41801 1.71906 0 7.14624 0 13.3008H16ZM13.3514 16.4956C12.2306 16.6949 11.22 16.3241 10.5324 15.6573L21.6707 4.17086C18.7917 1.37905 14.66 0.0121327 10.5509 0.742641L13.3514 16.4956ZM16.1016 1.91406C15.5011 1.91406 14.481 1.97979 13.3065 2.41602C12.0997 2.86428 10.4041 3.84203 9.22761 5.80277C6.61948 10.1496 8.97262 14.1237 10.4323 15.5834C11.8919 17.043 15.866 19.3961 20.2129 16.788C22.1736 15.6116 23.1513 13.9159 23.5996 12.7091C24.0358 11.5346 24.1016 10.5146 24.1016 9.91406H8.10156C8.10156 9.32186 8.16625 8.30804 8.6008 7.1381C9.04737 5.9358 10.0228 4.24301 11.9809 3.06813C16.3226 0.463112 20.2905 2.81417 21.746 4.26966C23.2015 5.72515 25.5525 9.69301 22.9475 14.0347C21.7726 15.9928 20.0798 16.9683 18.8775 17.4148C17.7076 17.8494 16.6938 17.9141 16.1016 17.9141V1.91406ZM22.1855 6.97596L20.6913 5.44862L9.25398 16.6373L10.7481 18.1647L22.1855 6.97596ZM20.4965 5.25612C18.0087 2.88142 14.4677 1.69419 10.9016 2.28854L13.532 18.0708C11.9581 18.3332 10.4757 17.81 9.44885 16.8298L20.4965 5.25612ZM10.8461 2.29799C5.49492 3.22863 1.59375 7.84259 1.59375 13.3008H17.5938C17.5938 15.6379 15.884 17.662 13.5875 18.0614L10.8461 2.29799ZM1.59375 13.3008V13.4668H17.5938V13.3008H1.59375ZM1.59375 13.4668C1.59375 16.4672 2.75683 19.5984 5.28894 21.8893L16.0236 10.0247C17.1611 11.054 17.5938 12.3921 17.5938 13.4668H1.59375ZM5.20245 21.8099L11.0462 27.2552L21.9538 15.5495L16.1101 10.1042L5.20245 21.8099ZM21.9704 27.2397L27.781 21.7944L16.8401 10.1197L11.0296 15.565L21.9704 27.2397ZM27.6779 21.8893C30.0703 19.7247 31.4062 16.6647 31.4062 13.4668H15.4062C15.4062 12.1947 15.9453 10.9276 16.9432 10.0247L27.6779 21.8893ZM31.4062 13.4668V13.3008H15.4062V13.4668H31.4062ZM31.4062 13.3008C31.4062 7.72158 27.3512 3.20765 22.1207 2.29799L19.3793 18.0614C17.2034 17.683 15.4062 15.7589 15.4062 13.3008H31.4062ZM22.0652 2.28854C18.4991 1.69419 14.9581 2.88142 12.4703 5.25612L23.5179 16.8298C22.4911 17.81 21.0087 18.3332 19.4348 18.0708L22.0652 2.28854ZM12.3373 5.38611L10.8099 6.91346L22.1237 18.2272L23.651 16.6998L12.3373 5.38611Z" fill="url(#paint0_linear_216_10)" fill-opacity="0.45" mask="url(#path-1-outside-1_216_10)"/>
<defs>
<linearGradient id="paint0_linear_216_10" x1="16.5" y1="7" x2="16.5" y2="24" gradientUnits="userSpaceOnUse">
<stop stop-color="white" stop-opacity="0.39"/>
<stop offset="1" stop-color="white" stop-opacity="0.51"/>
</linearGradient>
</defs>
</svg>
